<svg xmlns="http://www.w3.org/2000/svg" viewBox="0 0 588 588" width="588" height="588">
<circle cx="127.58490566037736" cy="94.30188679245283" r="4.659622641509434" fill="#000000"/>
<circle cx="138.67924528301887" cy="94.30188679245283" r="4.659622641509434" fill="#000000"/>
<circle cx="149.77358490566039" cy="94.30188679245283" r="4.659622641509434" fill="#000000"/>
<circle cx="160.8679245283019" cy="94.30188679245283" r="4.659622641509434" fill="#000000"/>
<circle cx="194.1509433962264" cy="94.30188679245283" r="4.659622641509434" fill="#000000"/>
<circle cx="205.24528301886795" cy="94.30188679245283" r="4.659622641509434" fill="#000000"/>
<circle cx="216.33962264150944" cy="94.30188679245283" r="4.659622641509434" fill="#000000"/>
<circle cx="260.7169811320755" cy="94.30188679245283" r="4.659622641509434" fill="#000000"/>
<circle cx="271.811320754717" cy="94.30188679245283" r="4.659622641509434" fill="#000000"/>
<circle cx="294.0" cy="94.30188679245283" r="4.659622641509434" fill="#000000"/>
<circle cx="316.188679245283" cy="94.30188679245283" r="4.659622641509434" fill="#000000"/>
<circle cx="338.37735849056605" cy="94.30188679245283" r="4.659622641509434" fill="#000000"/>
<circle cx="349.4716981132076" cy="94.30188679245283" r="4.659622641509434" fill="#000000"/>
<circle cx="371.66037735849056" cy="94.30188679245283" r="4.659622641509434" fill="#000000"/>
<circle cx="427.13207547169816" cy="94.30188679245283" r="4.659622641509434" fill="#000000"/>
<circle cx="438.22641509433964" cy="94.30188679245283" r="4.659622641509434" fill="#000000"/>
<circle cx="449.3207547169811" cy="94.30188679245283" r="4.659622641509434" fill="#000000"/>
<circle cx="460.41509433962267" cy="94.30188679245283" r="4.659622641509434" fill="#000000"/>
<circle cx="160.8679245283019" cy="105.39622641509433" r="4.659622641509434" fill="#000000"/>
<circle cx="194.1509433962264" cy="105.39622641509433" r="4.659622641509434" fill="#000000"/>
<circle cx="205.24528301886795" cy="105.39622641509433" r="4.659622641509434" fill="#000000"/>
<circle cx="216.33962264150944" cy="105.39622641509433" r="4.659622641509434" fill="#000000"/>
<circle cx="227.43396226415092" cy="105.39622641509433" r="4.659622641509434" fill="#000000"/>
<circle cx="238.52830188679246" cy="105.39622641509433" r="4.659622641509434" fill="#000000"/>
<circle cx="305.09433962264154" cy="105.39622641509433" r="4.659622641509434" fill="#000000"/>
<circle cx="360.5660377358491" cy="105.39622641509433" r="4.659622641509434" fill="#000000"/>
<circle cx="382.7547169811321" cy="105.39622641509433" r="4.659622641509434" fill="#000000"/>
<circle cx="404.94339622641513" cy="105.39622641509433" r="4.659622641509434" fill="#000000"/>
<circle cx="427.13207547169816" cy="105.39622641509433" r="4.659622641509434" fill="#000000"/>
<circle cx="127.58490566037736" cy="116.49056603773585" r="4.659622641509434" fill="#000000"/>
<circle cx="138.67924528301887" cy="116.49056603773585" r="4.659622641509434" fill="#000000"/>
<circle cx="160.8679245283019" cy="116.49056603773585" r="4.659622641509434" fill="#000000"/>
<circle cx="183.05660377358492" cy="116.49056603773585" r="4.659622641509434" fill="#000000"/>
<circle cx="249.62264150943395" cy="116.49056603773585" r="4.659622641509434" fill="#000000"/>
<circle cx="260.7169811320755" cy="116.49056603773585" r="4.659622641509434" fill="#000000"/>
<circle cx="305.09433962264154" cy="116.49056603773585" r="4.659622641509434" fill="#000000"/>
<circle cx="316.188679245283" cy="116.49056603773585" r="4.659622641509434" fill="#000000"/>
<circle cx="327.28301886792457" cy="116.49056603773585" r="4.659622641509434" fill="#000000"/>
<circle cx="349.4716981132076" cy="116.49056603773585" r="4.659622641509434" fill="#000000"/>
<circle cx="371.66037735849056" cy="116.49056603773585" r="4.659622641509434" fill="#000000"/>
<circle cx="382.7547169811321" cy="116.49056603773585" r="4.659622641509434" fill="#000000"/>
<circle cx="393.8490566037736" cy="116.49056603773585" r="4.659622641509434" fill="#000000"/>
<circle cx="404.94339622641513" cy="116.49056603773585" r="4.659622641509434" fill="#000000"/>
<circle cx="427.13207547169816" cy="116.49056603773585" r="4.659622641509434" fill="#000000"/>
<circle cx="449.3207547169811" cy="116.49056603773585" r="4.659622641509434" fill="#000000"/>
<circle cx="460.41509433962267" cy="116.49056603773585" r="4.659622641509434" fill="#000000"/>
<circle cx="94.30188679245283" cy="127.58490566037736" r="4.659622641509434" fill="#000000"/>
<circle cx="116.49056603773585" cy="127.58490566037736" r="4.659622641509434" fill="#000000"/>
<circle cx="127.58490566037736" cy="127.58490566037736" r="4.659622641509434" fill="#000000"/>
<circle cx="138.67924528301887" cy="127.58490566037736" r="4.659622641509434" fill="#000000"/>
<circle cx="160.8679245283019" cy="127.58490566037736" r="4.659622641509434" fill="#000000"/>
<circle cx="183.05660377358492" cy="127.58490566037736" r="4.659622641509434" fill="#000000"/>
<circle cx="194.1509433962264" cy="127.58490566037736" r="4.659622641509434" fill="#000000"/>
<circle cx="216.33962264150944" cy="127.58490566037736" r="4.659622641509434" fill="#000000"/>
<circle cx="238.52830188679246" cy="127.58490566037736" r="4.659622641509434" fill="#000000"/>
<circle cx="249.62264150943395" cy="127.58490566037736" r="4.659622641509434" fill="#000000"/>
<circle cx="260.7169811320755" cy="127.58490566037736" r="4.659622641509434" fill="#000000"/>
<circle cx="271.811320754717" cy="127.58490566037736" r="4.659622641509434" fill="#000000"/>
<circle cx="305.09433962264154" cy="127.58490566037736" r="4.659622641509434" fill="#000000"/>
<circle cx="327.28301886792457" cy="127.58490566037736" r="4.659622641509434" fill="#000000"/>
<circle cx="338.37735849056605" cy="127.58490566037736" r="4.659622641509434" fill="#000000"/>
<circle cx="360.5660377358491" cy="127.58490566037736" r="4.659622641509434" fill="#000000"/>
<circle cx="371.66037735849056" cy="127.58490566037736" r="4.659622641509434" fill="#000000"/>
<circle cx="404.94339622641513" cy="127.58490566037736" r="4.659622641509434" fill="#000000"/>
<circle cx="427.13207547169816" cy="127.58490566037736" r="4.659622641509434" fill="#000000"/>
<circle cx="449.3207547169811" cy="127.58490566037736" r="4.659622641509434" fill="#000000"/>
<circle cx="460.41509433962267" cy="127.58490566037736" r="4.659622641509434" fill="#000000"/>
<circle cx="471.50943396226415" cy="127.58490566037736" r="4.659622641509434" fill="#000000"/>
<circle cx="493.6981132075472" cy="127.58490566037736" r="4.659622641509434" fill="#000000"/>
<circle cx="94.30188679245283" cy="138.67924528301887" r="4.659622641509434" fill="#000000"/>
<circle cx="116.49056603773585" cy="138.67924528301887" r="4.659622641509434" fill="#000000"/>
<circle cx="127.58490566037736" cy="138.67924528301887" r="4.659622641509434" fill="#000000"/>
<circle cx="138.67924528301887" cy="138.67924528301887" r="4.659622641509434" fill="#000000"/>
<circle cx="160.8679245283019" cy="138.67924528301887" r="4.659622641509434" fill="#000000"/>
<circle cx="216.33962264150944" cy="138.67924528301887" r="4.659622641509434" fill="#000000"/>
<circle cx="227.43396226415092" cy="138.67924528301887" r="4.659622641509434" fill="#000000"/>
<circle cx="249.62264150943395" cy="138.67924528301887" r="4.659622641509434" fill="#000000"/>
<circle cx="294.0" cy="138.67924528301887" r="4.659622641509434" fill="#000000"/>
<circle cx="338.37735849056605" cy="138.67924528301887" r="4.659622641509434" fill="#000000"/>
<circle cx="382.7547169811321" cy="138.67924528301887" r="4.659622641509434" fill="#000000"/>
<circle cx="427.13207547169816" cy="138.67924528301887" r="4.659622641509434" fill="#000000"/>
<circle cx="449.3207547169811" cy="138.67924528301887" r="4.659622641509434" fill="#000000"/>
<circle cx="460.41509433962267" cy="138.67924528301887" r="4.659622641509434" fill="#000000"/>
<circle cx="471.50943396226415" cy="138.67924528301887" r="4.659622641509434" fill="#000000"/>
<circle cx="493.6981132075472" cy="138.67924528301887" r="4.659622641509434" fill="#000000"/>
<circle cx="94.30188679245283" cy="149.77358490566039" r="4.659622641509434" fill="#000000"/>
<circle cx="160.8679245283019" cy="149.77358490566039" r="4.659622641509434" fill="#000000"/>
<circle cx="194.1509433962264" cy="149.77358490566039" r="4.659622641509434" fill="#000000"/>
<circle cx="227.43396226415092" cy="149.77358490566039" r="4.659622641509434" fill="#000000"/>
<circle cx="260.7169811320755" cy="149.77358490566039" r="4.659622641509434" fill="#000000"/>
<circle cx="305.09433962264154" cy="149.77358490566039" r="4.659622641509434" fill="#000000"/>
<circle cx="327.28301886792457" cy="149.77358490566039" r="4.659622641509434" fill="#000000"/>
<circle cx="338.37735849056605" cy="149.77358490566039" r="4.659622641509434" fill="#000000"/>
<circle cx="349.4716981132076" cy="149.77358490566039" r="4.659622641509434" fill="#000000"/>
<circle cx="427.13207547169816" cy="149.77358490566039" r="4.659622641509434" fill="#000000"/>
<circle cx="493.6981132075472" cy="149.77358490566039" r="4.659622641509434" fill="#000000"/>
<circle cx="94.30188679245283" cy="160.8679245283019" r="4.659622641509434" fill="#000000"/>
<circle cx="105.39622641509433" cy="160.8679245283019" r="4.659622641509434" fill="#000000"/>
<circle cx="116.49056603773585" cy="160.8679245283019" r="4.659622641509434" fill="#000000"/>
<circle cx="127.58490566037736" cy="160.8679245283019" r="4.659622641509434" fill="#000000"/>
<circle cx="138.67924528301887" cy="160.8679245283019" r="4.659622641509434" fill="#000000"/>
<circle cx="149.77358490566039" cy="160.8679245283019" r="4.659622641509434" fill="#000000"/>
<circle cx="160.8679245283019" cy="160.8679245283019" r="4.659622641509434" fill="#000000"/>
<circle cx="183.05660377358492" cy="160.8679245283019" r="4.659622641509434" fill="#000000"/>
<circle cx="205.24528301886795" cy="160.8679245283019" r="4.659622641509434" fill="#000000"/>
<circle cx="227.43396226415092" cy="160.8679245283019" r="4.659622641509434" fill="#000000"/>
<circle cx="249.62264150943395" cy="160.8679245283019" r="4.659622641509434" fill="#000000"/>
<circle cx="271.811320754717" cy="160.8679245283019" r="4.659622641509434" fill="#000000"/>
<circle cx="294.0" cy="160.8679245283019" r="4.659622641509434" fill="#000000"/>
<circle cx="316.188679245283" cy="160.8679245283019" r="4.659622641509434" fill="#000000"/>
<circle cx="338.37735849056605" cy="160.8679245283019" r="4.659622641509434" fill="#000000"/>
<circle cx="360.5660377358491" cy="160.8679245283019" r="4.659622641509434" fill="#000000"/>
<circle cx="382.7547169811321" cy="160.8679245283019" r="4.659622641509434" fill="#000000"/>
<circle cx="404.94339622641513" cy="160.8679245283019" r="4.659622641509434" fill="#000000"/>
<circle cx="427.13207547169816" cy="160.8679245283019" r="4.659622641509434" fill="#000000"/>
<circle cx="438.22641509433964" cy="160.8679245283019" r="4.659622641509434" fill="#000000"/>
<circle cx="449.3207547169811" cy="160.8679245283019" r="4.659622641509434" fill="#000000"/>
<circle cx="460.41509433962267" cy="160.8679245283019" r="4.659622641509434" fill="#000000"/>
<circle cx="471.50943396226415" cy="160.8679245283019" r="4.659622641509434" fill="#000000"/>
<circle cx="482.6037735849057" cy="160.8679245283019" r="4.659622641509434" fill="#000000"/>
<circle cx="493.6981132075472" cy="160.8679245283019" r="4.659622641509434" fill="#000000"/>
<circle cx="194.1509433962264" cy="171.96226415094338" r="4.659622641509434" fill="#000000"/>
<circle cx="205.24528301886795" cy="171.96226415094338" r="4.659622641509434" fill="#000000"/>
<circle cx="216.33962264150944" cy="171.96226415094338" r="4.659622641509434" fill="#000000"/>
<circle cx="249.62264150943395" cy="171.96226415094338" r="4.659622641509434" fill="#000000"/>
<circle cx="260.7169811320755" cy="171.96226415094338" r="4.659622641509434" fill="#000000"/>
<circle cx="294.0" cy="171.96226415094338" r="4.659622641509434" fill="#000000"/>
<circle cx="305.09433962264154" cy="171.96226415094338" r="4.659622641509434" fill="#000000"/>
<circle cx="316.188679245283" cy="171.96226415094338" r="4.659622641509434" fill="#000000"/>
<circle cx="338.37735849056605" cy="171.96226415094338" r="4.659622641509434" fill="#000000"/>
<circle cx="360.5660377358491" cy="171.96226415094338" r="4.659622641509434" fill="#000000"/>
<circle cx="371.66037735849056" cy="171.96226415094338" r="4.659622641509434" fill="#000000"/>
<circle cx="393.8490566037736" cy="171.96226415094338" r="4.659622641509434" fill="#000000"/>
<circle cx="404.94339622641513" cy="171.96226415094338" r="4.659622641509434" fill="#000000"/>
<circle cx="127.58490566037736" cy="183.05660377358492" r="4.659622641509434" fill="#000000"/>
<circle cx="138.67924528301887" cy="183.05660377358492" r="4.659622641509434" fill="#000000"/>
<circle cx="160.8679245283019" cy="183.05660377358492" r="4.659622641509434" fill="#000000"/>
<circle cx="171.96226415094338" cy="183.05660377358492" r="4.659622641509434" fill="#000000"/>
<circle cx="194.1509433962264" cy="183.05660377358492" r="4.659622641509434" fill="#000000"/>
<circle cx="205.24528301886795" cy="183.05660377358492" r="4.659622641509434" fill="#000000"/>
<circle cx="227.43396226415092" cy="183.05660377358492" r="4.659622641509434" fill="#000000"/>
<circle cx="260.7169811320755" cy="183.05660377358492" r="4.659622641509434" fill="#000000"/>
<circle cx="271.811320754717" cy="183.05660377358492" r="4.659622641509434" fill="#000000"/>
<circle cx="294.0" cy="183.05660377358492" r="4.659622641509434" fill="#000000"/>
<circle cx="316.188679245283" cy="183.05660377358492" r="4.659622641509434" fill="#000000"/>
<circle cx="327.28301886792457" cy="183.05660377358492" r="4.659622641509434" fill="#000000"/>
<circle cx="338.37735849056605" cy="183.05660377358492" r="4.659622641509434" fill="#000000"/>
<circle cx="349.4716981132076" cy="183.05660377358492" r="4.659622641509434" fill="#000000"/>
<circle cx="360.5660377358491" cy="183.05660377358492" r="4.659622641509434" fill="#000000"/>
<circle cx="371.66037735849056" cy="183.05660377358492" r="4.659622641509434" fill="#000000"/>
<circle cx="404.94339622641513" cy="183.05660377358492" r="4.659622641509434" fill="#000000"/>
<circle cx="460.41509433962267" cy="183.05660377358492" r="4.659622641509434" fill="#000000"/>
<circle cx="471.50943396226415" cy="183.05660377358492" r="4.659622641509434" fill="#000000"/>
<circle cx="94.30188679245283" cy="194.1509433962264" r="4.659622641509434" fill="#000000"/>
<circle cx="116.49056603773585" cy="194.1509433962264" r="4.659622641509434" fill="#000000"/>
<circle cx="138.67924528301887" cy="194.1509433962264" r="4.659622641509434" fill="#000000"/>
<circle cx="149.77358490566039" cy="194.1509433962264" r="4.659622641509434" fill="#000000"/>
<circle cx="205.24528301886795" cy="194.1509433962264" r="4.659622641509434" fill="#000000"/>
<circle cx="216.33962264150944" cy="194.1509433962264" r="4.659622641509434" fill="#000000"/>
<circle cx="227.43396226415092" cy="194.1509433962264" r="4.659622641509434" fill="#000000"/>
<circle cx="238.52830188679246" cy="194.1509433962264" r="4.659622641509434" fill="#000000"/>
<circle cx="260.7169811320755" cy="194.1509433962264" r="4.659622641509434" fill="#000000"/>
<circle cx="282.9056603773585" cy="194.1509433962264" r="4.659622641509434" fill="#000000"/>
<circle cx="294.0" cy="194.1509433962264" r="4.659622641509434" fill="#000000"/>
<circle cx="305.09433962264154" cy="194.1509433962264" r="4.659622641509434" fill="#000000"/>
<circle cx="371.66037735849056" cy="194.1509433962264" r="4.659622641509434" fill="#000000"/>
<circle cx="427.13207547169816" cy="194.1509433962264" r="4.659622641509434" fill="#000000"/>
<circle cx="449.3207547169811" cy="194.1509433962264" r="4.659622641509434" fill="#000000"/>
<circle cx="460.41509433962267" cy="194.1509433962264" r="4.659622641509434" fill="#000000"/>
<circle cx="471.50943396226415" cy="194.1509433962264" r="4.659622641509434" fill="#000000"/>
<circle cx="127.58490566037736" cy="205.24528301886795" r="4.659622641509434" fill="#000000"/>
<circle cx="160.8679245283019" cy="205.24528301886795" r="4.659622641509434" fill="#000000"/>
<circle cx="171.96226415094338" cy="205.24528301886795" r="4.659622641509434" fill="#000000"/>
<circle cx="205.24528301886795" cy="205.24528301886795" r="4.659622641509434" fill="#000000"/>
<circle cx="216.33962264150944" cy="205.24528301886795" r="4.659622641509434" fill="#000000"/>
<circle cx="227.43396226415092" cy="205.24528301886795" r="4.659622641509434" fill="#000000"/>
<circle cx="238.52830188679246" cy="205.24528301886795" r="4.659622641509434" fill="#000000"/>
<circle cx="249.62264150943395" cy="205.24528301886795" r="4.659622641509434" fill="#000000"/>
<circle cx="260.7169811320755" cy="205.24528301886795" r="4.659622641509434" fill="#000000"/>
<circle cx="271.811320754717" cy="205.24528301886795" r="4.659622641509434" fill="#000000"/>
<circle cx="327.28301886792457" cy="205.24528301886795" r="4.659622641509434" fill="#000000"/>
<circle cx="338.37735849056605" cy="205.24528301886795" r="4.659622641509434" fill="#000000"/>
<circle cx="349.4716981132076" cy="205.24528301886795" r="4.659622641509434" fill="#000000"/>
<circle cx="371.66037735849056" cy="205.24528301886795" r="4.659622641509434" fill="#000000"/>
<circle cx="416.0377358490566" cy="205.24528301886795" r="4.659622641509434" fill="#000000"/>
<circle cx="427.13207547169816" cy="205.24528301886795" r="4.659622641509434" fill="#000000"/>
<circle cx="438.22641509433964" cy="205.24528301886795" r="4.659622641509434" fill="#000000"/>
<circle cx="460.41509433962267" cy="205.24528301886795" r="4.659622641509434" fill="#000000"/>
<circle cx="493.6981132075472" cy="205.24528301886795" r="4.659622641509434" fill="#000000"/>
<circle cx="94.30188679245283" cy="216.33962264150944" r="4.659622641509434" fill="#000000"/>
<circle cx="127.58490566037736" cy="216.33962264150944" r="4.659622641509434" fill="#000000"/>
<circle cx="171.96226415094338" cy="216.33962264150944" r="4.659622641509434" fill="#000000"/>
<circle cx="183.05660377358492" cy="216.33962264150944" r="4.659622641509434" fill="#000000"/>
<circle cx="194.1509433962264" cy="216.33962264150944" r="4.659622641509434" fill="#000000"/>
<circle cx="227.43396226415092" cy="216.33962264150944" r="4.659622641509434" fill="#000000"/>
<circle cx="238.52830188679246" cy="216.33962264150944" r="4.659622641509434" fill="#000000"/>
<circle cx="249.62264150943395" cy="216.33962264150944" r="4.659622641509434" fill="#000000"/>
<circle cx="271.811320754717" cy="216.33962264150944" r="4.659622641509434" fill="#000000"/>
<circle cx="294.0" cy="216.33962264150944" r="4.659622641509434" fill="#000000"/>
<circle cx="305.09433962264154" cy="216.33962264150944" r="4.659622641509434" fill="#000000"/>
<circle cx="316.188679245283" cy="216.33962264150944" r="4.659622641509434" fill="#000000"/>
<circle cx="338.37735849056605" cy="216.33962264150944" r="4.659622641509434" fill="#000000"/>
<circle cx="360.5660377358491" cy="216.33962264150944" r="4.659622641509434" fill="#000000"/>
<circle cx="382.7547169811321" cy="216.33962264150944" r="4.659622641509434" fill="#000000"/>
<circle cx="393.8490566037736" cy="216.33962264150944" r="4.659622641509434" fill="#000000"/>
<circle cx="416.0377358490566" cy="216.33962264150944" r="4.659622641509434" fill="#000000"/>
<circle cx="427.13207547169816" cy="216.33962264150944" r="4.659622641509434" fill="#000000"/>
<circle cx="438.22641509433964" cy="216.33962264150944" r="4.659622641509434" fill="#000000"/>
<circle cx="449.3207547169811" cy="216.33962264150944" r="4.659622641509434" fill="#000000"/>
<circle cx="460.41509433962267" cy="216.33962264150944" r="4.659622641509434" fill="#000000"/>
<circle cx="471.50943396226415" cy="216.33962264150944" r="4.659622641509434" fill="#000000"/>
<circle cx="105.39622641509433" cy="227.43396226415092" r="4.659622641509434" fill="#000000"/>
<circle cx="116.49056603773585" cy="227.43396226415092" r="4.659622641509434" fill="#000000"/>
<circle cx="127.58490566037736" cy="227.43396226415092" r="4.659622641509434" fill="#000000"/>
<circle cx="149.77358490566039" cy="227.43396226415092" r="4.659622641509434" fill="#000000"/>
<circle cx="160.8679245283019" cy="227.43396226415092" r="4.659622641509434" fill="#000000"/>
<circle cx="171.96226415094338" cy="227.43396226415092" r="4.659622641509434" fill="#000000"/>
<circle cx="183.05660377358492" cy="227.43396226415092" r="4.659622641509434" fill="#000000"/>
<circle cx="194.1509433962264" cy="227.43396226415092" r="4.659622641509434" fill="#000000"/>
<circle cx="205.24528301886795" cy="227.43396226415092" r="4.659622641509434" fill="#000000"/>
<circle cx="227.43396226415092" cy="227.43396226415092" r="4.659622641509434" fill="#000000"/>
<circle cx="238.52830188679246" cy="227.43396226415092" r="4.659622641509434" fill="#000000"/>
<circle cx="249.62264150943395" cy="227.43396226415092" r="4.659622641509434" fill="#000000"/>
<circle cx="260.7169811320755" cy="227.43396226415092" r="4.659622641509434" fill="#000000"/>
<circle cx="271.811320754717" cy="227.43396226415092" r="4.659622641509434" fill="#000000"/>
<circle cx="316.188679245283" cy="227.43396226415092" r="4.659622641509434" fill="#000000"/>
<circle cx="338.37735849056605" cy="227.43396226415092" r="4.659622641509434" fill="#000000"/>
<circle cx="349.4716981132076" cy="227.43396226415092" r="4.659622641509434" fill="#000000"/>
<circle cx="360.5660377358491" cy="227.43396226415092" r="4.659622641509434" fill="#000000"/>
<circle cx="427.13207547169816" cy="227.43396226415092" r="4.659622641509434" fill="#000000"/>
<circle cx="438.22641509433964" cy="227.43396226415092" r="4.659622641509434" fill="#000000"/>
<circle cx="460.41509433962267" cy="227.43396226415092" r="4.659622641509434" fill="#000000"/>
<circle cx="482.6037735849057" cy="227.43396226415092" r="4.659622641509434" fill="#000000"/>
<circle cx="493.6981132075472" cy="227.43396226415092" r="4.659622641509434" fill="#000000"/>
<circle cx="94.30188679245283" cy="238.52830188679246" r="4.659622641509434" fill="#000000"/>
<circle cx="105.39622641509433" cy="238.52830188679246" r="4.659622641509434" fill="#000000"/>
<circle cx="116.49056603773585" cy="238.52830188679246" r="4.659622641509434" fill="#000000"/>
<circle cx="138.67924528301887" cy="238.52830188679246" r="4.659622641509434" fill="#000000"/>
<circle cx="171.96226415094338" cy="238.52830188679246" r="4.659622641509434" fill="#000000"/>
<circle cx="205.24528301886795" cy="238.52830188679246" r="4.659622641509434" fill="#000000"/>
<circle cx="216.33962264150944" cy="238.52830188679246" r="4.659622641509434" fill="#000000"/>
<circle cx="227.43396226415092" cy="238.52830188679246" r="4.659622641509434" fill="#000000"/>
<circle cx="238.52830188679246" cy="238.52830188679246" r="4.659622641509434" fill="#000000"/>
<circle cx="249.62264150943395" cy="238.52830188679246" r="4.659622641509434" fill="#000000"/>
<circle cx="260.7169811320755" cy="238.52830188679246" r="4.659622641509434" fill="#000000"/>
<circle cx="271.811320754717" cy="238.52830188679246" r="4.659622641509434" fill="#000000"/>
<circle cx="282.9056603773585" cy="238.52830188679246" r="4.659622641509434" fill="#000000"/>
<circle cx="327.28301886792457" cy="238.52830188679246" r="4.659622641509434" fill="#000000"/>
<circle cx="360.5660377358491" cy="238.52830188679246" r="4.659622641509434" fill="#000000"/>
<circle cx="371.66037735849056" cy="238.52830188679246" r="4.659622641509434" fill="#000000"/>
<circle cx="393.8490566037736" cy="238.52830188679246" r="4.659622641509434" fill="#000000"/>
<circle cx="404.94339622641513" cy="238.52830188679246" r="4.659622641509434" fill="#000000"/>
<circle cx="416.0377358490566" cy="238.52830188679246" r="4.659622641509434" fill="#000000"/>
<circle cx="438.22641509433964" cy="238.52830188679246" r="4.659622641509434" fill="#000000"/>
<circle cx="449.3207547169811" cy="238.52830188679246" r="4.659622641509434" fill="#000000"/>
<circle cx="471.50943396226415" cy="238.52830188679246" r="4.659622641509434" fill="#000000"/>
<circle cx="94.30188679245283" cy="249.62264150943395" r="4.659622641509434" fill="#000000"/>
<circle cx="127.58490566037736" cy="249.62264150943395" r="4.659622641509434" fill="#000000"/>
<circle cx="149.77358490566039" cy="249.62264150943395" r="4.659622641509434" fill="#000000"/>
<circle cx="160.8679245283019" cy="249.62264150943395" r="4.659622641509434" fill="#000000"/>
<circle cx="183.05660377358492" cy="249.62264150943395" r="4.659622641509434" fill="#000000"/>
<circle cx="227.43396226415092" cy="249.62264150943395" r="4.659622641509434" fill="#000000"/>
<circle cx="238.52830188679246" cy="249.62264150943395" r="4.659622641509434" fill="#000000"/>
<circle cx="260.7169811320755" cy="249.62264150943395" r="4.659622641509434" fill="#000000"/>
<circle cx="282.9056603773585" cy="249.62264150943395" r="4.659622641509434" fill="#000000"/>
<circle cx="305.09433962264154" cy="249.62264150943395" r="4.659622641509434" fill="#000000"/>
<circle cx="316.188679245283" cy="249.62264150943395" r="4.659622641509434" fill="#000000"/>
<circle cx="327.28301886792457" cy="249.62264150943395" r="4.659622641509434" fill="#000000"/>
<circle cx="360.5660377358491" cy="249.62264150943395" r="4.659622641509434" fill="#000000"/>
<circle cx="371.66037735849056" cy="249.62264150943395" r="4.659622641509434" fill="#000000"/>
<circle cx="393.8490566037736" cy="249.62264150943395" r="4.659622641509434" fill="#000000"/>
<circle cx="438.22641509433964" cy="249.62264150943395" r="4.659622641509434" fill="#000000"/>
<circle cx="449.3207547169811" cy="249.62264150943395" r="4.659622641509434" fill="#000000"/>
<circle cx="460.41509433962267" cy="249.62264150943395" r="4.659622641509434" fill="#000000"/>
<circle cx="471.50943396226415" cy="249.62264150943395" r="4.659622641509434" fill="#000000"/>
<circle cx="482.6037735849057" cy="249.62264150943395" r="4.659622641509434" fill="#000000"/>
<circle cx="493.6981132075472" cy="249.62264150943395" r="4.659622641509434" fill="#000000"/>
<circle cx="127.58490566037736" cy="260.7169811320755" r="4.659622641509434" fill="#000000"/>
<circle cx="138.67924528301887" cy="260.7169811320755" r="4.659622641509434" fill="#000000"/>
<circle cx="183.05660377358492" cy="260.7169811320755" r="4.659622641509434" fill="#000000"/>
<circle cx="238.52830188679246" cy="260.7169811320755" r="4.659622641509434" fill="#000000"/>
<circle cx="260.7169811320755" cy="260.7169811320755" r="4.659622641509434" fill="#000000"/>
<circle cx="271.811320754717" cy="260.7169811320755" r="4.659622641509434" fill="#000000"/>
<circle cx="294.0" cy="260.7169811320755" r="4.659622641509434" fill="#000000"/>
<circle cx="327.28301886792457" cy="260.7169811320755" r="4.659622641509434" fill="#000000"/>
<circle cx="349.4716981132076" cy="260.7169811320755" r="4.659622641509434" fill="#000000"/>
<circle cx="360.5660377358491" cy="260.7169811320755" r="4.659622641509434" fill="#000000"/>
<circle cx="382.7547169811321" cy="260.7169811320755" r="4.659622641509434" fill="#000000"/>
<circle cx="416.0377358490566" cy="260.7169811320755" r="4.659622641509434" fill="#000000"/>
<circle cx="427.13207547169816" cy="260.7169811320755" r="4.659622641509434" fill="#000000"/>
<circle cx="438.22641509433964" cy="260.7169811320755" r="4.659622641509434" fill="#000000"/>
<circle cx="460.41509433962267" cy="260.7169811320755" r="4.659622641509434" fill="#000000"/>
<circle cx="471.50943396226415" cy="260.7169811320755" r="4.659622641509434" fill="#000000"/>
<circle cx="482.6037735849057" cy="260.7169811320755" r="4.659622641509434" fill="#000000"/>
<circle cx="493.6981132075472" cy="260.7169811320755" r="4.659622641509434" fill="#000000"/>
<circle cx="94.30188679245283" cy="271.811320754717" r="4.659622641509434" fill="#000000"/>
<circle cx="138.67924528301887" cy="271.811320754717" r="4.659622641509434" fill="#000000"/>
<circle cx="149.77358490566039" cy="271.811320754717" r="4.659622641509434" fill="#000000"/>
<circle cx="160.8679245283019" cy="271.811320754717" r="4.659622641509434" fill="#000000"/>
<circle cx="282.9056603773585" cy="271.811320754717" r="4.659622641509434" fill="#000000"/>
<circle cx="294.0" cy="271.811320754717" r="4.659622641509434" fill="#000000"/>
<circle cx="316.188679245283" cy="271.811320754717" r="4.659622641509434" fill="#000000"/>
<circle cx="327.28301886792457" cy="271.811320754717" r="4.659622641509434" fill="#000000"/>
<circle cx="338.37735849056605" cy="271.811320754717" r="4.659622641509434" fill="#000000"/>
<circle cx="349.4716981132076" cy="271.811320754717" r="4.659622641509434" fill="#000000"/>
<circle cx="371.66037735849056" cy="271.811320754717" r="4.659622641509434" fill="#000000"/>
<circle cx="393.8490566037736" cy="271.811320754717" r="4.659622641509434" fill="#000000"/>
<circle cx="427.13207547169816" cy="271.811320754717" r="4.659622641509434" fill="#000000"/>
<circle cx="471.50943396226415" cy="271.811320754717" r="4.659622641509434" fill="#000000"/>
<circle cx="493.6981132075472" cy="271.811320754717" r="4.659622641509434" fill="#000000"/>
<circle cx="183.05660377358492" cy="282.9056603773585" r="4.659622641509434" fill="#000000"/>
<circle cx="216.33962264150944" cy="282.9056603773585" r="4.659622641509434" fill="#000000"/>
<circle cx="238.52830188679246" cy="282.9056603773585" r="4.659622641509434" fill="#000000"/>
<circle cx="260.7169811320755" cy="282.9056603773585" r="4.659622641509434" fill="#000000"/>
<circle cx="282.9056603773585" cy="282.9056603773585" r="4.659622641509434" fill="#000000"/>
<circle cx="294.0" cy="282.9056603773585" r="4.659622641509434" fill="#000000"/>
<circle cx="305.09433962264154" cy="282.9056603773585" r="4.659622641509434" fill="#000000"/>
<circle cx="360.5660377358491" cy="282.9056603773585" r="4.659622641509434" fill="#000000"/>
<circle cx="371.66037735849056" cy="282.9056603773585" r="4.659622641509434" fill="#000000"/>
<circle cx="382.7547169811321" cy="282.9056603773585" r="4.659622641509434" fill="#000000"/>
<circle cx="393.8490566037736" cy="282.9056603773585" r="4.659622641509434" fill="#000000"/>
<circle cx="416.0377358490566" cy="282.9056603773585" r="4.659622641509434" fill="#000000"/>
<circle cx="438.22641509433964" cy="282.9056603773585" r="4.659622641509434" fill="#000000"/>
<circle cx="471.50943396226415" cy="282.9056603773585" r="4.659622641509434" fill="#000000"/>
<circle cx="482.6037735849057" cy="282.9056603773585" r="4.659622641509434" fill="#000000"/>
<circle cx="138.67924528301887" cy="294.0" r="4.659622641509434" fill="#000000"/>
<circle cx="149.77358490566039" cy="294.0" r="4.659622641509434" fill="#000000"/>
<circle cx="160.8679245283019" cy="294.0" r="4.659622641509434" fill="#000000"/>
<circle cx="171.96226415094338" cy="294.0" r="4.659622641509434" fill="#000000"/>
<circle cx="194.1509433962264" cy="294.0" r="4.659622641509434" fill="#000000"/>
<circle cx="238.52830188679246" cy="294.0" r="4.659622641509434" fill="#000000"/>
<circle cx="249.62264150943395" cy="294.0" r="4.659622641509434" fill="#000000"/>
<circle cx="271.811320754717" cy="294.0" r="4.659622641509434" fill="#000000"/>
<circle cx="282.9056603773585" cy="294.0" r="4.659622641509434" fill="#000000"/>
<circle cx="294.0" cy="294.0" r="4.659622641509434" fill="#000000"/>
<circle cx="316.188679245283" cy="294.0" r="4.659622641509434" fill="#000000"/>
<circle cx="338.37735849056605" cy="294.0" r="4.659622641509434" fill="#000000"/>
<circle cx="349.4716981132076" cy="294.0" r="4.659622641509434" fill="#000000"/>
<circle cx="371.66037735849056" cy="294.0" r="4.659622641509434" fill="#000000"/>
<circle cx="382.7547169811321" cy="294.0" r="4.659622641509434" fill="#000000"/>
<circle cx="393.8490566037736" cy="294.0" r="4.659622641509434" fill="#000000"/>
<circle cx="404.94339622641513" cy="294.0" r="4.659622641509434" fill="#000000"/>
<circle cx="449.3207547169811" cy="294.0" r="4.659622641509434" fill="#000000"/>
<circle cx="493.6981132075472" cy="294.0" r="4.659622641509434" fill="#000000"/>
<circle cx="94.30188679245283" cy="305.09433962264154" r="4.659622641509434" fill="#000000"/>
<circle cx="149.77358490566039" cy="305.09433962264154" r="4.659622641509434" fill="#000000"/>
<circle cx="171.96226415094338" cy="305.09433962264154" r="4.659622641509434" fill="#000000"/>
<circle cx="183.05660377358492" cy="305.09433962264154" r="4.659622641509434" fill="#000000"/>
<circle cx="205.24528301886795" cy="305.09433962264154" r="4.659622641509434" fill="#000000"/>
<circle cx="227.43396226415092" cy="305.09433962264154" r="4.659622641509434" fill="#000000"/>
<circle cx="238.52830188679246" cy="305.09433962264154" r="4.659622641509434" fill="#000000"/>
<circle cx="249.62264150943395" cy="305.09433962264154" r="4.659622641509434" fill="#000000"/>
<circle cx="271.811320754717" cy="305.09433962264154" r="4.659622641509434" fill="#000000"/>
<circle cx="282.9056603773585" cy="305.09433962264154" r="4.659622641509434" fill="#000000"/>
<circle cx="316.188679245283" cy="305.09433962264154" r="4.659622641509434" fill="#000000"/>
<circle cx="327.28301886792457" cy="305.09433962264154" r="4.659622641509434" fill="#000000"/>
<circle cx="349.4716981132076" cy="305.09433962264154" r="4.659622641509434" fill="#000000"/>
<circle cx="360.5660377358491" cy="305.09433962264154" r="4.659622641509434" fill="#000000"/>
<circle cx="371.66037735849056" cy="305.09433962264154" r="4.659622641509434" fill="#000000"/>
<circle cx="393.8490566037736" cy="305.09433962264154" r="4.659622641509434" fill="#000000"/>
<circle cx="404.94339622641513" cy="305.09433962264154" r="4.659622641509434" fill="#000000"/>
<circle cx="416.0377358490566" cy="305.09433962264154" r="4.659622641509434" fill="#000000"/>
<circle cx="438.22641509433964" cy="305.09433962264154" r="4.659622641509434" fill="#000000"/>
<circle cx="449.3207547169811" cy="305.09433962264154" r="4.659622641509434" fill="#000000"/>
<circle cx="460.41509433962267" cy="305.09433962264154" r="4.659622641509434" fill="#000000"/>
<circle cx="482.6037735849057" cy="305.09433962264154" r="4.659622641509434" fill="#000000"/>
<circle cx="493.6981132075472" cy="305.09433962264154" r="4.659622641509434" fill="#000000"/>
<circle cx="94.30188679245283" cy="316.188679245283" r="4.659622641509434" fill="#000000"/>
<circle cx="105.39622641509433" cy="316.188679245283" r="4.659622641509434" fill="#000000"/>
<circle cx="138.67924528301887" cy="316.188679245283" r="4.659622641509434" fill="#000000"/>
<circle cx="160.8679245283019" cy="316.188679245283" r="4.659622641509434" fill="#000000"/>
<circle cx="205.24528301886795" cy="316.188679245283" r="4.659622641509434" fill="#000000"/>
<circle cx="227.43396226415092" cy="316.188679245283" r="4.659622641509434" fill="#000000"/>
<circle cx="249.62264150943395" cy="316.188679245283" r="4.659622641509434" fill="#000000"/>
<circle cx="271.811320754717" cy="316.188679245283" r="4.659622641509434" fill="#000000"/>
<circle cx="294.0" cy="316.188679245283" r="4.659622641509434" fill="#000000"/>
<circle cx="305.09433962264154" cy="316.188679245283" r="4.659622641509434" fill="#000000"/>
<circle cx="327.28301886792457" cy="316.188679245283" r="4.659622641509434" fill="#000000"/>
<circle cx="338.37735849056605" cy="316.188679245283" r="4.659622641509434" fill="#000000"/>
<circle cx="382.7547169811321" cy="316.188679245283" r="4.659622641509434" fill="#000000"/>
<circle cx="404.94339622641513" cy="316.188679245283" r="4.659622641509434" fill="#000000"/>
<circle cx="416.0377358490566" cy="316.188679245283" r="4.659622641509434" fill="#000000"/>
<circle cx="427.13207547169816" cy="316.188679245283" r="4.659622641509434" fill="#000000"/>
<circle cx="449.3207547169811" cy="316.188679245283" r="4.659622641509434" fill="#000000"/>
<circle cx="460.41509433962267" cy="316.188679245283" r="4.659622641509434" fill="#000000"/>
<circle cx="482.6037735849057" cy="316.188679245283" r="4.659622641509434" fill="#000000"/>
<circle cx="493.6981132075472" cy="316.188679245283" r="4.659622641509434" fill="#000000"/>
<circle cx="105.39622641509433" cy="327.28301886792457" r="4.659622641509434" fill="#000000"/>
<circle cx="116.49056603773585" cy="327.28301886792457" r="4.659622641509434" fill="#000000"/>
<circle cx="127.58490566037736" cy="327.28301886792457" r="4.659622641509434" fill="#000000"/>
<circle cx="149.77358490566039" cy="327.28301886792457" r="4.659622641509434" fill="#000000"/>
<circle cx="171.96226415094338" cy="327.28301886792457" r="4.659622641509434" fill="#000000"/>
<circle cx="216.33962264150944" cy="327.28301886792457" r="4.659622641509434" fill="#000000"/>
<circle cx="227.43396226415092" cy="327.28301886792457" r="4.659622641509434" fill="#000000"/>
<circle cx="249.62264150943395" cy="327.28301886792457" r="4.659622641509434" fill="#000000"/>
<circle cx="260.7169811320755" cy="327.28301886792457" r="4.659622641509434" fill="#000000"/>
<circle cx="282.9056603773585" cy="327.28301886792457" r="4.659622641509434" fill="#000000"/>
<circle cx="338.37735849056605" cy="327.28301886792457" r="4.659622641509434" fill="#000000"/>
<circle cx="349.4716981132076" cy="327.28301886792457" r="4.659622641509434" fill="#000000"/>
<circle cx="371.66037735849056" cy="327.28301886792457" r="4.659622641509434" fill="#000000"/>
<circle cx="382.7547169811321" cy="327.28301886792457" r="4.659622641509434" fill="#000000"/>
<circle cx="393.8490566037736" cy="327.28301886792457" r="4.659622641509434" fill="#000000"/>
<circle cx="404.94339622641513" cy="327.28301886792457" r="4.659622641509434" fill="#000000"/>
<circle cx="438.22641509433964" cy="327.28301886792457" r="4.659622641509434" fill="#000000"/>
<circle cx="449.3207547169811" cy="327.28301886792457" r="4.659622641509434" fill="#000000"/>
<circle cx="471.50943396226415" cy="327.28301886792457" r="4.659622641509434" fill="#000000"/>
<circle cx="94.30188679245283" cy="338.37735849056605" r="4.659622641509434" fill="#000000"/>
<circle cx="127.58490566037736" cy="338.37735849056605" r="4.659622641509434" fill="#000000"/>
<circle cx="149.77358490566039" cy="338.37735849056605" r="4.659622641509434" fill="#000000"/>
<circle cx="160.8679245283019" cy="338.37735849056605" r="4.659622641509434" fill="#000000"/>
<circle cx="183.05660377358492" cy="338.37735849056605" r="4.659622641509434" fill="#000000"/>
<circle cx="205.24528301886795" cy="338.37735849056605" r="4.659622641509434" fill="#000000"/>
<circle cx="216.33962264150944" cy="338.37735849056605" r="4.659622641509434" fill="#000000"/>
<circle cx="249.62264150943395" cy="338.37735849056605" r="4.659622641509434" fill="#000000"/>
<circle cx="271.811320754717" cy="338.37735849056605" r="4.659622641509434" fill="#000000"/>
<circle cx="294.0" cy="338.37735849056605" r="4.659622641509434" fill="#000000"/>
<circle cx="327.28301886792457" cy="338.37735849056605" r="4.659622641509434" fill="#000000"/>
<circle cx="338.37735849056605" cy="338.37735849056605" r="4.659622641509434" fill="#000000"/>
<circle cx="371.66037735849056" cy="338.37735849056605" r="4.659622641509434" fill="#000000"/>
<circle cx="393.8490566037736" cy="338.37735849056605" r="4.659622641509434" fill="#000000"/>
<circle cx="449.3207547169811" cy="338.37735849056605" r="4.659622641509434" fill="#000000"/>
<circle cx="471.50943396226415" cy="338.37735849056605" r="4.659622641509434" fill="#000000"/>
<circle cx="493.6981132075472" cy="338.37735849056605" r="4.659622641509434" fill="#000000"/>
<circle cx="94.30188679245283" cy="349.4716981132076" r="4.659622641509434" fill="#000000"/>
<circle cx="127.58490566037736" cy="349.4716981132076" r="4.659622641509434" fill="#000000"/>
<circle cx="149.77358490566039" cy="349.4716981132076" r="4.659622641509434" fill="#000000"/>
<circle cx="216.33962264150944" cy="349.4716981132076" r="4.659622641509434" fill="#000000"/>
<circle cx="227.43396226415092" cy="349.4716981132076" r="4.659622641509434" fill="#000000"/>
<circle cx="305.09433962264154" cy="349.4716981132076" r="4.659622641509434" fill="#000000"/>
<circle cx="327.28301886792457" cy="349.4716981132076" r="4.659622641509434" fill="#000000"/>
<circle cx="360.5660377358491" cy="349.4716981132076" r="4.659622641509434" fill="#000000"/>
<circle cx="371.66037735849056" cy="349.4716981132076" r="4.659622641509434" fill="#000000"/>
<circle cx="393.8490566037736" cy="349.4716981132076" r="4.659622641509434" fill="#000000"/>
<circle cx="404.94339622641513" cy="349.4716981132076" r="4.659622641509434" fill="#000000"/>
<circle cx="416.0377358490566" cy="349.4716981132076" r="4.659622641509434" fill="#000000"/>
<circle cx="438.22641509433964" cy="349.4716981132076" r="4.659622641509434" fill="#000000"/>
<circle cx="460.41509433962267" cy="349.4716981132076" r="4.659622641509434" fill="#000000"/>
<circle cx="471.50943396226415" cy="349.4716981132076" r="4.659622641509434" fill="#000000"/>
<circle cx="493.6981132075472" cy="349.4716981132076" r="4.659622641509434" fill="#000000"/>
<circle cx="94.30188679245283" cy="360.5660377358491" r="4.659622641509434" fill="#000000"/>
<circle cx="105.39622641509433" cy="360.5660377358491" r="4.659622641509434" fill="#000000"/>
<circle cx="138.67924528301887" cy="360.5660377358491" r="4.659622641509434" fill="#000000"/>
<circle cx="160.8679245283019" cy="360.5660377358491" r="4.659622641509434" fill="#000000"/>
<circle cx="171.96226415094338" cy="360.5660377358491" r="4.659622641509434" fill="#000000"/>
<circle cx="183.05660377358492" cy="360.5660377358491" r="4.659622641509434" fill="#000000"/>
<circle cx="194.1509433962264" cy="360.5660377358491" r="4.659622641509434" fill="#000000"/>
<circle cx="216.33962264150944" cy="360.5660377358491" r="4.659622641509434" fill="#000000"/>
<circle cx="227.43396226415092" cy="360.5660377358491" r="4.659622641509434" fill="#000000"/>
<circle cx="249.62264150943395" cy="360.5660377358491" r="4.659622641509434" fill="#000000"/>
<circle cx="271.811320754717" cy="360.5660377358491" r="4.659622641509434" fill="#000000"/>
<circle cx="282.9056603773585" cy="360.5660377358491" r="4.659622641509434" fill="#000000"/>
<circle cx="294.0" cy="360.5660377358491" r="4.659622641509434" fill="#000000"/>
<circle cx="305.09433962264154" cy="360.5660377358491" r="4.659622641509434" fill="#000000"/>
<circle cx="316.188679245283" cy="360.5660377358491" r="4.659622641509434" fill="#000000"/>
<circle cx="327.28301886792457" cy="360.5660377358491" r="4.659622641509434" fill="#000000"/>
<circle cx="360.5660377358491" cy="360.5660377358491" r="4.659622641509434" fill="#000000"/>
<circle cx="371.66037735849056" cy="360.5660377358491" r="4.659622641509434" fill="#000000"/>
<circle cx="438.22641509433964" cy="360.5660377358491" r="4.659622641509434" fill="#000000"/>
<circle cx="460.41509433962267" cy="360.5660377358491" r="4.659622641509434" fill="#000000"/>
<circle cx="94.30188679245283" cy="371.66037735849056" r="4.659622641509434" fill="#000000"/>
<circle cx="116.49056603773585" cy="371.66037735849056" r="4.659622641509434" fill="#000000"/>
<circle cx="127.58490566037736" cy="371.66037735849056" r="4.659622641509434" fill="#000000"/>
<circle cx="183.05660377358492" cy="371.66037735849056" r="4.659622641509434" fill="#000000"/>
<circle cx="194.1509433962264" cy="371.66037735849056" r="4.659622641509434" fill="#000000"/>
<circle cx="205.24528301886795" cy="371.66037735849056" r="4.659622641509434" fill="#000000"/>
<circle cx="216.33962264150944" cy="371.66037735849056" r="4.659622641509434" fill="#000000"/>
<circle cx="227.43396226415092" cy="371.66037735849056" r="4.659622641509434" fill="#000000"/>
<circle cx="238.52830188679246" cy="371.66037735849056" r="4.659622641509434" fill="#000000"/>
<circle cx="260.7169811320755" cy="371.66037735849056" r="4.659622641509434" fill="#000000"/>
<circle cx="271.811320754717" cy="371.66037735849056" r="4.659622641509434" fill="#000000"/>
<circle cx="282.9056603773585" cy="371.66037735849056" r="4.659622641509434" fill="#000000"/>
<circle cx="294.0" cy="371.66037735849056" r="4.659622641509434" fill="#000000"/>
<circle cx="316.188679245283" cy="371.66037735849056" r="4.659622641509434" fill="#000000"/>
<circle cx="338.37735849056605" cy="371.66037735849056" r="4.659622641509434" fill="#000000"/>
<circle cx="371.66037735849056" cy="371.66037735849056" r="4.659622641509434" fill="#000000"/>
<circle cx="382.7547169811321" cy="371.66037735849056" r="4.659622641509434" fill="#000000"/>
<circle cx="427.13207547169816" cy="371.66037735849056" r="4.659622641509434" fill="#000000"/>
<circle cx="449.3207547169811" cy="371.66037735849056" r="4.659622641509434" fill="#000000"/>
<circle cx="460.41509433962267" cy="371.66037735849056" r="4.659622641509434" fill="#000000"/>
<circle cx="482.6037735849057" cy="371.66037735849056" r="4.659622641509434" fill="#000000"/>
<circle cx="94.30188679245283" cy="382.7547169811321" r="4.659622641509434" fill="#000000"/>
<circle cx="105.39622641509433" cy="382.7547169811321" r="4.659622641509434" fill="#000000"/>
<circle cx="116.49056603773585" cy="382.7547169811321" r="4.659622641509434" fill="#000000"/>
<circle cx="138.67924528301887" cy="382.7547169811321" r="4.659622641509434" fill="#000000"/>
<circle cx="149.77358490566039" cy="382.7547169811321" r="4.659622641509434" fill="#000000"/>
<circle cx="160.8679245283019" cy="382.7547169811321" r="4.659622641509434" fill="#000000"/>
<circle cx="183.05660377358492" cy="382.7547169811321" r="4.659622641509434" fill="#000000"/>
<circle cx="205.24528301886795" cy="382.7547169811321" r="4.659622641509434" fill="#000000"/>
<circle cx="238.52830188679246" cy="382.7547169811321" r="4.659622641509434" fill="#000000"/>
<circle cx="249.62264150943395" cy="382.7547169811321" r="4.659622641509434" fill="#000000"/>
<circle cx="260.7169811320755" cy="382.7547169811321" r="4.659622641509434" fill="#000000"/>
<circle cx="271.811320754717" cy="382.7547169811321" r="4.659622641509434" fill="#000000"/>
<circle cx="282.9056603773585" cy="382.7547169811321" r="4.659622641509434" fill="#000000"/>
<circle cx="305.09433962264154" cy="382.7547169811321" r="4.659622641509434" fill="#000000"/>
<circle cx="327.28301886792457" cy="382.7547169811321" r="4.659622641509434" fill="#000000"/>
<circle cx="349.4716981132076" cy="382.7547169811321" r="4.659622641509434" fill="#000000"/>
<circle cx="360.5660377358491" cy="382.7547169811321" r="4.659622641509434" fill="#000000"/>
<circle cx="371.66037735849056" cy="382.7547169811321" r="4.659622641509434" fill="#000000"/>
<circle cx="393.8490566037736" cy="382.7547169811321" r="4.659622641509434" fill="#000000"/>
<circle cx="427.13207547169816" cy="382.7547169811321" r="4.659622641509434" fill="#000000"/>
<circle cx="471.50943396226415" cy="382.7547169811321" r="4.659622641509434" fill="#000000"/>
<circle cx="482.6037735849057" cy="382.7547169811321" r="4.659622641509434" fill="#000000"/>
<circle cx="493.6981132075472" cy="382.7547169811321" r="4.659622641509434" fill="#000000"/>
<circle cx="94.30188679245283" cy="393.8490566037736" r="4.659622641509434" fill="#000000"/>
<circle cx="116.49056603773585" cy="393.8490566037736" r="4.659622641509434" fill="#000000"/>
<circle cx="138.67924528301887" cy="393.8490566037736" r="4.659622641509434" fill="#000000"/>
<circle cx="149.77358490566039" cy="393.8490566037736" r="4.659622641509434" fill="#000000"/>
<circle cx="227.43396226415092" cy="393.8490566037736" r="4.659622641509434" fill="#000000"/>
<circle cx="249.62264150943395" cy="393.8490566037736" r="4.659622641509434" fill="#000000"/>
<circle cx="260.7169811320755" cy="393.8490566037736" r="4.659622641509434" fill="#000000"/>
<circle cx="305.09433962264154" cy="393.8490566037736" r="4.659622641509434" fill="#000000"/>
<circle cx="327.28301886792457" cy="393.8490566037736" r="4.659622641509434" fill="#000000"/>
<circle cx="349.4716981132076" cy="393.8490566037736" r="4.659622641509434" fill="#000000"/>
<circle cx="404.94339622641513" cy="393.8490566037736" r="4.659622641509434" fill="#000000"/>
<circle cx="416.0377358490566" cy="393.8490566037736" r="4.659622641509434" fill="#000000"/>
<circle cx="438.22641509433964" cy="393.8490566037736" r="4.659622641509434" fill="#000000"/>
<circle cx="460.41509433962267" cy="393.8490566037736" r="4.659622641509434" fill="#000000"/>
<circle cx="471.50943396226415" cy="393.8490566037736" r="4.659622641509434" fill="#000000"/>
<circle cx="482.6037735849057" cy="393.8490566037736" r="4.659622641509434" fill="#000000"/>
<circle cx="94.30188679245283" cy="404.94339622641513" r="4.659622641509434" fill="#000000"/>
<circle cx="116.49056603773585" cy="404.94339622641513" r="4.659622641509434" fill="#000000"/>
<circle cx="127.58490566037736" cy="404.94339622641513" r="4.659622641509434" fill="#000000"/>
<circle cx="138.67924528301887" cy="404.94339622641513" r="4.659622641509434" fill="#000000"/>
<circle cx="160.8679245283019" cy="404.94339622641513" r="4.659622641509434" fill="#000000"/>
<circle cx="171.96226415094338" cy="404.94339622641513" r="4.659622641509434" fill="#000000"/>
<circle cx="194.1509433962264" cy="404.94339622641513" r="4.659622641509434" fill="#000000"/>
<circle cx="205.24528301886795" cy="404.94339622641513" r="4.659622641509434" fill="#000000"/>
<circle cx="227.43396226415092" cy="404.94339622641513" r="4.659622641509434" fill="#000000"/>
<circle cx="260.7169811320755" cy="404.94339622641513" r="4.659622641509434" fill="#000000"/>
<circle cx="294.0" cy="404.94339622641513" r="4.659622641509434" fill="#000000"/>
<circle cx="305.09433962264154" cy="404.94339622641513" r="4.659622641509434" fill="#000000"/>
<circle cx="327.28301886792457" cy="404.94339622641513" r="4.659622641509434" fill="#000000"/>
<circle cx="338.37735849056605" cy="404.94339622641513" r="4.659622641509434" fill="#000000"/>
<circle cx="360.5660377358491" cy="404.94339622641513" r="4.659622641509434" fill="#000000"/>
<circle cx="371.66037735849056" cy="404.94339622641513" r="4.659622641509434" fill="#000000"/>
<circle cx="393.8490566037736" cy="404.94339622641513" r="4.659622641509434" fill="#000000"/>
<circle cx="404.94339622641513" cy="404.94339622641513" r="4.659622641509434" fill="#000000"/>
<circle cx="416.0377358490566" cy="404.94339622641513" r="4.659622641509434" fill="#000000"/>
<circle cx="427.13207547169816" cy="404.94339622641513" r="4.659622641509434" fill="#000000"/>
<circle cx="438.22641509433964" cy="404.94339622641513" r="4.659622641509434" fill="#000000"/>
<circle cx="449.3207547169811" cy="404.94339622641513" r="4.659622641509434" fill="#000000"/>
<circle cx="460.41509433962267" cy="404.94339622641513" r="4.659622641509434" fill="#000000"/>
<circle cx="471.50943396226415" cy="404.94339622641513" r="4.659622641509434" fill="#000000"/>
<circle cx="183.05660377358492" cy="416.0377358490566" r="4.659622641509434" fill="#000000"/>
<circle cx="205.24528301886795" cy="416.0377358490566" r="4.659622641509434" fill="#000000"/>
<circle cx="249.62264150943395" cy="416.0377358490566" r="4.659622641509434" fill="#000000"/>
<circle cx="282.9056603773585" cy="416.0377358490566" r="4.659622641509434" fill="#000000"/>
<circle cx="316.188679245283" cy="416.0377358490566" r="4.659622641509434" fill="#000000"/>
<circle cx="327.28301886792457" cy="416.0377358490566" r="4.659622641509434" fill="#000000"/>
<circle cx="338.37735849056605" cy="416.0377358490566" r="4.659622641509434" fill="#000000"/>
<circle cx="360.5660377358491" cy="416.0377358490566" r="4.659622641509434" fill="#000000"/>
<circle cx="382.7547169811321" cy="416.0377358490566" r="4.659622641509434" fill="#000000"/>
<circle cx="404.94339622641513" cy="416.0377358490566" r="4.659622641509434" fill="#000000"/>
<circle cx="449.3207547169811" cy="416.0377358490566" r="4.659622641509434" fill="#000000"/>
<circle cx="460.41509433962267" cy="416.0377358490566" r="4.659622641509434" fill="#000000"/>
<circle cx="471.50943396226415" cy="416.0377358490566" r="4.659622641509434" fill="#000000"/>
<circle cx="482.6037735849057" cy="416.0377358490566" r="4.659622641509434" fill="#000000"/>
<circle cx="94.30188679245283" cy="427.13207547169816" r="4.659622641509434" fill="#000000"/>
<circle cx="105.39622641509433" cy="427.13207547169816" r="4.659622641509434" fill="#000000"/>
<circle cx="116.49056603773585" cy="427.13207547169816" r="4.659622641509434" fill="#000000"/>
<circle cx="127.58490566037736" cy="427.13207547169816" r="4.659622641509434" fill="#000000"/>
<circle cx="138.67924528301887" cy="427.13207547169816" r="4.659622641509434" fill="#000000"/>
<circle cx="149.77358490566039" cy="427.13207547169816" r="4.659622641509434" fill="#000000"/>
<circle cx="160.8679245283019" cy="427.13207547169816" r="4.659622641509434" fill="#000000"/>
<circle cx="183.05660377358492" cy="427.13207547169816" r="4.659622641509434" fill="#000000"/>
<circle cx="205.24528301886795" cy="427.13207547169816" r="4.659622641509434" fill="#000000"/>
<circle cx="249.62264150943395" cy="427.13207547169816" r="4.659622641509434" fill="#000000"/>
<circle cx="271.811320754717" cy="427.13207547169816" r="4.659622641509434" fill="#000000"/>
<circle cx="282.9056603773585" cy="427.13207547169816" r="4.659622641509434" fill="#000000"/>
<circle cx="294.0" cy="427.13207547169816" r="4.659622641509434" fill="#000000"/>
<circle cx="305.09433962264154" cy="427.13207547169816" r="4.659622641509434" fill="#000000"/>
<circle cx="349.4716981132076" cy="427.13207547169816" r="4.659622641509434" fill="#000000"/>
<circle cx="360.5660377358491" cy="427.13207547169816" r="4.659622641509434" fill="#000000"/>
<circle cx="371.66037735849056" cy="427.13207547169816" r="4.659622641509434" fill="#000000"/>
<circle cx="382.7547169811321" cy="427.13207547169816" r="4.659622641509434" fill="#000000"/>
<circle cx="404.94339622641513" cy="427.13207547169816" r="4.659622641509434" fill="#000000"/>
<circle cx="427.13207547169816" cy="427.13207547169816" r="4.659622641509434" fill="#000000"/>
<circle cx="449.3207547169811" cy="427.13207547169816" r="4.659622641509434" fill="#000000"/>
<circle cx="460.41509433962267" cy="427.13207547169816" r="4.659622641509434" fill="#000000"/>
<circle cx="471.50943396226415" cy="427.13207547169816" r="4.659622641509434" fill="#000000"/>
<circle cx="493.6981132075472" cy="427.13207547169816" r="4.659622641509434" fill="#000000"/>
<circle cx="94.30188679245283" cy="438.22641509433964" r="4.659622641509434" fill="#000000"/>
<circle cx="160.8679245283019" cy="438.22641509433964" r="4.659622641509434" fill="#000000"/>
<circle cx="216.33962264150944" cy="438.22641509433964" r="4.659622641509434" fill="#000000"/>
<circle cx="227.43396226415092" cy="438.22641509433964" r="4.659622641509434" fill="#000000"/>
<circle cx="305.09433962264154" cy="438.22641509433964" r="4.659622641509434" fill="#000000"/>
<circle cx="327.28301886792457" cy="438.22641509433964" r="4.659622641509434" fill="#000000"/>
<circle cx="338.37735849056605" cy="438.22641509433964" r="4.659622641509434" fill="#000000"/>
<circle cx="349.4716981132076" cy="438.22641509433964" r="4.659622641509434" fill="#000000"/>
<circle cx="371.66037735849056" cy="438.22641509433964" r="4.659622641509434" fill="#000000"/>
<circle cx="382.7547169811321" cy="438.22641509433964" r="4.659622641509434" fill="#000000"/>
<circle cx="393.8490566037736" cy="438.22641509433964" r="4.659622641509434" fill="#000000"/>
<circle cx="404.94339622641513" cy="438.22641509433964" r="4.659622641509434" fill="#000000"/>
<circle cx="449.3207547169811" cy="438.22641509433964" r="4.659622641509434" fill="#000000"/>
<circle cx="460.41509433962267" cy="438.22641509433964" r="4.659622641509434" fill="#000000"/>
<circle cx="94.30188679245283" cy="449.3207547169811" r="4.659622641509434" fill="#000000"/>
<circle cx="116.49056603773585" cy="449.3207547169811" r="4.659622641509434" fill="#000000"/>
<circle cx="127.58490566037736" cy="449.3207547169811" r="4.659622641509434" fill="#000000"/>
<circle cx="138.67924528301887" cy="449.3207547169811" r="4.659622641509434" fill="#000000"/>
<circle cx="160.8679245283019" cy="449.3207547169811" r="4.659622641509434" fill="#000000"/>
<circle cx="183.05660377358492" cy="449.3207547169811" r="4.659622641509434" fill="#000000"/>
<circle cx="249.62264150943395" cy="449.3207547169811" r="4.659622641509434" fill="#000000"/>
<circle cx="305.09433962264154" cy="449.3207547169811" r="4.659622641509434" fill="#000000"/>
<circle cx="327.28301886792457" cy="449.3207547169811" r="4.659622641509434" fill="#000000"/>
<circle cx="338.37735849056605" cy="449.3207547169811" r="4.659622641509434" fill="#000000"/>
<circle cx="349.4716981132076" cy="449.3207547169811" r="4.659622641509434" fill="#000000"/>
<circle cx="393.8490566037736" cy="449.3207547169811" r="4.659622641509434" fill="#000000"/>
<circle cx="404.94339622641513" cy="449.3207547169811" r="4.659622641509434" fill="#000000"/>
<circle cx="416.0377358490566" cy="449.3207547169811" r="4.659622641509434" fill="#000000"/>
<circle cx="427.13207547169816" cy="449.3207547169811" r="4.659622641509434" fill="#000000"/>
<circle cx="438.22641509433964" cy="449.3207547169811" r="4.659622641509434" fill="#000000"/>
<circle cx="449.3207547169811" cy="449.3207547169811" r="4.659622641509434" fill="#000000"/>
<circle cx="493.6981132075472" cy="449.3207547169811" r="4.659622641509434" fill="#000000"/>
<circle cx="94.30188679245283" cy="460.41509433962267" r="4.659622641509434" fill="#000000"/>
<circle cx="116.49056603773585" cy="460.41509433962267" r="4.659622641509434" fill="#000000"/>
<circle cx="127.58490566037736" cy="460.41509433962267" r="4.659622641509434" fill="#000000"/>
<circle cx="138.67924528301887" cy="460.41509433962267" r="4.659622641509434" fill="#000000"/>
<circle cx="160.8679245283019" cy="460.41509433962267" r="4.659622641509434" fill="#000000"/>
<circle cx="183.05660377358492" cy="460.41509433962267" r="4.659622641509434" fill="#000000"/>
<circle cx="194.1509433962264" cy="460.41509433962267" r="4.659622641509434" fill="#000000"/>
<circle cx="216.33962264150944" cy="460.41509433962267" r="4.659622641509434" fill="#000000"/>
<circle cx="238.52830188679246" cy="460.41509433962267" r="4.659622641509434" fill="#000000"/>
<circle cx="249.62264150943395" cy="460.41509433962267" r="4.659622641509434" fill="#000000"/>
<circle cx="260.7169811320755" cy="460.41509433962267" r="4.659622641509434" fill="#000000"/>
<circle cx="271.811320754717" cy="460.41509433962267" r="4.659622641509434" fill="#000000"/>
<circle cx="282.9056603773585" cy="460.41509433962267" r="4.659622641509434" fill="#000000"/>
<circle cx="327.28301886792457" cy="460.41509433962267" r="4.659622641509434" fill="#000000"/>
<circle cx="338.37735849056605" cy="460.41509433962267" r="4.659622641509434" fill="#000000"/>
<circle cx="360.5660377358491" cy="460.41509433962267" r="4.659622641509434" fill="#000000"/>
<circle cx="382.7547169811321" cy="460.41509433962267" r="4.659622641509434" fill="#000000"/>
<circle cx="404.94339622641513" cy="460.41509433962267" r="4.659622641509434" fill="#000000"/>
<circle cx="427.13207547169816" cy="460.41509433962267" r="4.659622641509434" fill="#000000"/>
<circle cx="460.41509433962267" cy="460.41509433962267" r="4.659622641509434" fill="#000000"/>
<circle cx="127.58490566037736" cy="471.50943396226415" r="4.659622641509434" fill="#000000"/>
<circle cx="138.67924528301887" cy="471.50943396226415" r="4.659622641509434" fill="#000000"/>
<circle cx="160.8679245283019" cy="471.50943396226415" r="4.659622641509434" fill="#000000"/>
<circle cx="194.1509433962264" cy="471.50943396226415" r="4.659622641509434" fill="#000000"/>
<circle cx="216.33962264150944" cy="471.50943396226415" r="4.659622641509434" fill="#000000"/>
<circle cx="238.52830188679246" cy="471.50943396226415" r="4.659622641509434" fill="#000000"/>
<circle cx="260.7169811320755" cy="471.50943396226415" r="4.659622641509434" fill="#000000"/>
<circle cx="271.811320754717" cy="471.50943396226415" r="4.659622641509434" fill="#000000"/>
<circle cx="282.9056603773585" cy="471.50943396226415" r="4.659622641509434" fill="#000000"/>
<circle cx="305.09433962264154" cy="471.50943396226415" r="4.659622641509434" fill="#000000"/>
<circle cx="316.188679245283" cy="471.50943396226415" r="4.659622641509434" fill="#000000"/>
<circle cx="327.28301886792457" cy="471.50943396226415" r="4.659622641509434" fill="#000000"/>
<circle cx="338.37735849056605" cy="471.50943396226415" r="4.659622641509434" fill="#000000"/>
<circle cx="349.4716981132076" cy="471.50943396226415" r="4.659622641509434" fill="#000000"/>
<circle cx="371.66037735849056" cy="471.50943396226415" r="4.659622641509434" fill="#000000"/>
<circle cx="438.22641509433964" cy="471.50943396226415" r="4.659622641509434" fill="#000000"/>
<circle cx="449.3207547169811" cy="471.50943396226415" r="4.659622641509434" fill="#000000"/>
<circle cx="460.41509433962267" cy="471.50943396226415" r="4.659622641509434" fill="#000000"/>
<circle cx="482.6037735849057" cy="471.50943396226415" r="4.659622641509434" fill="#000000"/>
<circle cx="493.6981132075472" cy="471.50943396226415" r="4.659622641509434" fill="#000000"/>
<circle cx="160.8679245283019" cy="482.6037735849057" r="4.659622641509434" fill="#000000"/>
<circle cx="194.1509433962264" cy="482.6037735849057" r="4.659622641509434" fill="#000000"/>
<circle cx="216.33962264150944" cy="482.6037735849057" r="4.659622641509434" fill="#000000"/>
<circle cx="249.62264150943395" cy="482.6037735849057" r="4.659622641509434" fill="#000000"/>
<circle cx="305.09433962264154" cy="482.6037735849057" r="4.659622641509434" fill="#000000"/>
<circle cx="349.4716981132076" cy="482.6037735849057" r="4.659622641509434" fill="#000000"/>
<circle cx="360.5660377358491" cy="482.6037735849057" r="4.659622641509434" fill="#000000"/>
<circle cx="382.7547169811321" cy="482.6037735849057" r="4.659622641509434" fill="#000000"/>
<circle cx="438.22641509433964" cy="482.6037735849057" r="4.659622641509434" fill="#000000"/>
<circle cx="460.41509433962267" cy="482.6037735849057" r="4.659622641509434" fill="#000000"/>
<circle cx="471.50943396226415" cy="482.6037735849057" r="4.659622641509434" fill="#000000"/>
<circle cx="482.6037735849057" cy="482.6037735849057" r="4.659622641509434" fill="#000000"/>
<circle cx="493.6981132075472" cy="482.6037735849057" r="4.659622641509434" fill="#000000"/>
<circle cx="127.58490566037736" cy="493.6981132075472" r="4.659622641509434" fill="#000000"/>
<circle cx="138.67924528301887" cy="493.6981132075472" r="4.659622641509434" fill="#000000"/>
<circle cx="149.77358490566039" cy="493.6981132075472" r="4.659622641509434" fill="#000000"/>
<circle cx="160.8679245283019" cy="493.6981132075472" r="4.659622641509434" fill="#000000"/>
<circle cx="216.33962264150944" cy="493.6981132075472" r="4.659622641509434" fill="#000000"/>
<circle cx="249.62264150943395" cy="493.6981132075472" r="4.659622641509434" fill="#000000"/>
<circle cx="294.0" cy="493.6981132075472" r="4.659622641509434" fill="#000000"/>
<circle cx="305.09433962264154" cy="493.6981132075472" r="4.659622641509434" fill="#000000"/>
<circle cx="316.188679245283" cy="493.6981132075472" r="4.659622641509434" fill="#000000"/>
<circle cx="349.4716981132076" cy="493.6981132075472" r="4.659622641509434" fill="#000000"/>
<circle cx="360.5660377358491" cy="493.6981132075472" r="4.659622641509434" fill="#000000"/>
<circle cx="393.8490566037736" cy="493.6981132075472" r="4.659622641509434" fill="#000000"/>
<circle cx="404.94339622641513" cy="493.6981132075472" r="4.659622641509434" fill="#000000"/>
<circle cx="427.13207547169816" cy="493.6981132075472" r="4.659622641509434" fill="#000000"/>
<circle cx="438.22641509433964" cy="493.6981132075472" r="4.659622641509434" fill="#000000"/>
<circle cx="449.3207547169811" cy="493.6981132075472" r="4.659622641509434" fill="#000000"/>
<circle cx="460.41509433962267" cy="493.6981132075472" r="4.659622641509434" fill="#000000"/>
<circle cx="493.6981132075472" cy="493.6981132075472" r="4.659622641509434" fill="#000000"/>
<rect x="44.37735849056604" y="44.37735849056604" width="77.66037735849056" height="77.66037735849056" rx="15.532075471698112" ry="15.532075471698112" fill="#000000"/><rect x="55.47169811320755" y="55.47169811320755" width="55.47169811320755" height="55.47169811320755" rx="11.649056603773584" ry="11.649056603773584" fill="#ffffff"/><rect x="66.56603773584905" y="66.56603773584905" width="33.283018867924525" height="33.283018867924525" rx="7.766037735849056" ry="7.766037735849056" fill="#000000"/>
<rect x="465.96226415094344" y="44.37735849056604" width="77.66037735849056" height="77.66037735849056" rx="15.532075471698112" ry="15.532075471698112" fill="#000000"/><rect x="477.0566037735849" y="55.47169811320755" width="55.47169811320755" height="55.47169811320755" rx="11.649056603773584" ry="11.649056603773584" fill="#ffffff"/><rect x="488.15094339622647" y="66.56603773584905" width="33.283018867924525" height="33.283018867924525" rx="7.766037735849056" ry="7.766037735849056" fill="#000000"/>
<rect x="44.37735849056604" y="465.96226415094344" width="77.66037735849056" height="77.66037735849056" rx="15.532075471698112" ry="15.532075471698112" fill="#000000"/><rect x="55.47169811320755" y="477.0566037735849" width="55.47169811320755" height="55.47169811320755" rx="11.649056603773584" ry="11.649056603773584" fill="#ffffff"/><rect x="66.56603773584905" y="488.15094339622647" width="33.283018867924525" height="33.283018867924525" rx="7.766037735849056" ry="7.766037735849056" fill="#000000"/>
<g id="qreclaim-magnifier"><circle cx="294.0" cy="294.0" r="64.90188679245284" fill="white" opacity="0.92"/><circle cx="294.0" cy="294.0" r="62.30581132075473" fill="none" stroke="#3a2a21" stroke-width="10.384301886792455"/><rect x="323.20584905660377" y="323.20584905660377" width="36.34505660377359" height="12.98037735849057" rx="6.490188679245285" ry="6.490188679245285" fill="#3a2a21" transform="rotate(35 323.20584905660377 323.20584905660377)" opacity="0.98"/><rect x="260.25101886792453" y="253.76083018867922" width="67.49796226415096" height="80.47833962264153" rx="8.099755471698115" ry="8.099755471698115" fill="#3a2a21"/><rect x="268.0392452830189" y="261.5490566037736" width="25.960754716981135" height="64.90188679245284" rx="4.153720754716982" ry="4.153720754716982" fill="#f38b2c"/><rect x="294.0" y="261.5490566037736" width="25.960754716981135" height="64.90188679245284" rx="4.153720754716982" ry="4.153720754716982" fill="#ffffff"/><rect x="282.3176603773585" y="282.3176603773585" width="23.36467924528302" height="23.36467924528302" rx="5.140229433962265" ry="5.140229433962265" fill="#000000"/></g></svg>